<?xml version="1.0" encoding="UTF-8"?>
<svg xmlns="http://www.w3.org/2000/svg" version="1.1" viewBox="0 0 187.3 26.3">
  <defs>
    <style>
      .cls-1 {
        fill: #fff;
      }

      .cls-2 {
        fill: #1947ee;
      }
    </style>
  </defs>
  <!-- Generator: Adobe Illustrator 28.7.2, SVG Export Plug-In . SVG Version: 1.2.0 Build 154)  -->
  <g>
    <g id="Ebene_1">
      <rect x="-21.5" y="74.4" width="231.2" height="54.4"/>
      <g>
        <g>
          <path class="cls-1" d="M41,4.1h1.6v6h-1.6v-.3c-.6.3-1.1.5-1.5.5-.8,0-1.4-.2-1.7-.7s-.4-1.2-.4-2.3v-3.1h1.6v3.2c0,.6,0,1,.1,1.2s.3.3.7.3.7,0,1-.2h.2v-4.5h0Z"/>
          <path class="cls-1" d="M45.7,10.1h-1.6v-6h1.6v.3c.5-.3,1-.5,1.4-.5.7,0,1.2.2,1.5.6.7-.4,1.4-.6,2-.6s1.3.2,1.7.7.5,1.2.5,2.2v3.2h-1.6v-3.2c0-.5,0-.9-.2-1.1s-.3-.4-.7-.4-.6,0-.9.2h-.2c0,.7,0,1.1,0,1.4v3.1h-1.6v-3.1c0-.6,0-1-.2-1.2s-.3-.4-.7-.4-.6,0-.9.2h-.1v4.5h0Z"/>
          <path class="cls-1" d="M53.9,5.6v-1.4h4.5v1.4l-2.5,3.1h2.5v1.4h-4.5v-1.4l2.5-3.1s-2.5,0-2.5,0Z"/>
          <path class="cls-1" d="M63.1,4.1h1.6v6h-1.6v-.3c-.6.3-1.1.5-1.5.5-.8,0-1.4-.2-1.7-.7s-.4-1.2-.4-2.3v-3.1h1.6v3.2c0,.6,0,1,.1,1.2s.3.3.7.3.7,0,1-.2h.2v-4.5h0Z"/>
          <path class="cls-1" d="M71.7,10.9c0,.7-.3,1.2-.8,1.5s-1.2.5-2.1.5-1.6-.1-2.1-.4c-.5-.2-.7-.7-.7-1.3s.3-1,.9-1.4c-.3-.2-.4-.5-.4-.9s.1-.4.4-.8v-.2c-.4-.4-.7-1-.7-1.7s.2-1.3.7-1.7c.5-.3,1.1-.5,1.8-.5s.7,0,1,.1h.2s1.9,0,1.9,0v1.3h-.9c.2.2.3.5.3.8,0,.8-.2,1.3-.6,1.7-.4.3-1.1.5-1.9.5s-.3,0-.5,0c0,.2-.1.4-.1.5s0,.2.2.3c.1,0,.5,0,1,0,1,0,1.7.1,2.1.4s.6.7.6,1.4h0ZM67.5,11.1c0,.3.4.5,1.3.5s1.3-.2,1.3-.6,0-.4-.2-.4c-.1,0-.4,0-.9-.1h-1.1c-.2.1-.3.4-.3.6h0ZM67.6,6.1c0,.6.3.9.9.9s.9-.3.9-.9-.3-.9-.9-.9-.9.3-.9.9Z"/>
          <path class="cls-1" d="M72.4,7.7v-1.5h3.6v1.5h-3.6Z"/>
          <path class="cls-1" d="M82,6v2.5c0,.2,0,.3,0,.4,0,0,.2.1.3.2v1.2c-.5,0-.8,0-1,0-.2,0-.5-.2-.7-.3-.6.3-1.2.4-1.8.4-1.2,0-1.9-.7-1.9-2s.2-1.1.5-1.4c.3-.3.9-.4,1.6-.5h1.3v-.5c0-.2,0-.4-.2-.5-.1,0-.3-.1-.5-.1h-2.3c0,0,0-1,0-1,.9-.2,1.7-.3,2.4-.3s1.3.2,1.7.5.5.8.5,1.5h0ZM79.3,7.6c-.4,0-.7.3-.7.7s.2.7.6.7.6,0,1-.1h.2v-1.3h-1.1c0,0,0,0,0,0Z"/>
          <path class="cls-1" d="M85.1,10.1h-1.6v-6h1.6v.3c.5-.3,1-.5,1.5-.5.8,0,1.3.2,1.7.7.3.5.5,1.2.5,2.2v3.2h-1.6v-3.2c0-.5,0-.9-.2-1.1s-.4-.4-.7-.4-.6,0-.9.2h-.1v4.5h0Z"/>
          <path class="cls-1" d="M93.1,4c.8,0,1.4.2,1.8.7s.6,1.3.6,2.5-.2,2-.7,2.4-1.2.7-2.3.7-1,0-1.9-.1h-.5V1.7h1.6v2.6c.5-.2.9-.3,1.3-.3h0ZM92.5,8.8c.5,0,.9-.1,1.1-.4s.3-.7.3-1.4c0-1.1-.3-1.6-1-1.6s-.6,0-.9.1h-.2v3.2c.4,0,.6,0,.7,0Z"/>
          <path class="cls-1" d="M96.7,3.4v-1.6h1.6v1.6h-1.6ZM96.7,10.1v-6h1.6v6h-1.6Z"/>
          <path class="cls-1" d="M101.4,8.6c.2.2.5.2.8.2.7,0,1.4,0,2,0h.3s0,1.2,0,1.2c-.9.2-1.8.3-2.5.3s-1.6-.2-2-.7c-.4-.5-.6-1.3-.6-2.3,0-2.2.9-3.2,2.7-3.2s2.6.9,2.6,2.7v1.1h-3.7c0,.4.1.6.3.8h0ZM103.2,6.6c0-.5,0-.8-.2-1s-.4-.3-.8-.3-.7,0-.8.3c-.2.2-.2.5-.2,1h2.1Z"/>
          <path class="cls-1" d="M109.2,5.5h-1.5v2.5c0,.2,0,.4,0,.5,0,.1,0,.2.1.3,0,0,.2.1.3.1h.9s0,1.3,0,1.3c-.5.1-.9.2-1.2.2-.7,0-1.2-.2-1.5-.5s-.4-.9-.4-1.8v-2.5h-.7v-1.4h.7v-1.7h1.6v1.7h1.5v1.4h0Z"/>
          <path class="cls-1" d="M111.9,8.6c.2.2.5.2.8.2.7,0,1.4,0,2,0h.3s0,1.2,0,1.2c-.9.2-1.8.3-2.5.3s-1.6-.2-2-.7c-.4-.5-.6-1.3-.6-2.3,0-2.2.9-3.2,2.7-3.2s2.6.9,2.6,2.7v1.1h-3.7c0,.4.1.6.3.8h0ZM113.7,6.6c0-.5,0-.8-.2-1s-.4-.3-.8-.3-.7,0-.8.3c-.2.2-.2.5-.2,1h2.1Z"/>
          <path class="cls-1" d="M116.4,10.1v-6h1.6v.6c.7-.4,1.3-.7,1.9-.8v1.6c-.7.1-1.2.3-1.7.4h-.2v4.1h-1.6Z"/>
          <path class="cls-1" d="M120.5,7.7v-1.5h3.6v1.5h-3.6Z"/>
          <path class="cls-1" d="M124.8,4.1h1.7l1,4.6h.3l1-4.6h1.6l-1.4,6h-2.7l-1.4-6Z"/>
          <path class="cls-1" d="M132.8,8.6c.2.2.5.2.8.2.7,0,1.4,0,2,0h.3s0,1.2,0,1.2c-.9.2-1.8.3-2.5.3s-1.6-.2-2-.7c-.4-.5-.6-1.3-.6-2.3,0-2.2.9-3.2,2.6-3.2s2.6.9,2.6,2.7v1.1h-3.6c0,.4.1.6.3.8h0ZM134.6,6.6c0-.5,0-.8-.2-1s-.4-.3-.8-.3-.6,0-.8.3c-.2.2-.2.5-.2,1h2.1Z"/>
          <path class="cls-1" d="M137.4,10.1v-6h1.6v.6c.7-.4,1.3-.7,1.9-.8v1.6c-.6.1-1.2.3-1.7.4h-.2v4.1h-1.6Z"/>
          <path class="cls-1" d="M147.2,10.9c0,.7-.3,1.2-.8,1.5s-1.2.5-2.1.5-1.6-.1-2.1-.4c-.5-.2-.7-.7-.7-1.3s.3-1,.9-1.4c-.3-.2-.4-.5-.4-.9s.1-.4.4-.8v-.2c-.4-.4-.7-1-.7-1.7s.2-1.3.7-1.7c.5-.3,1.1-.5,1.8-.5s.7,0,1,.1h.2s1.9,0,1.9,0v1.3h-.9c.2.2.3.5.3.8,0,.8-.2,1.3-.6,1.7-.4.3-1.1.5-1.9.5s-.4,0-.5,0c0,.2-.1.4-.1.5s0,.2.2.3c.1,0,.5,0,1,0,1,0,1.7.1,2.1.4s.6.7.6,1.4h0ZM143.1,11.1c0,.3.4.5,1.3.5s1.3-.2,1.3-.6,0-.4-.2-.4c-.1,0-.4,0-.9-.1h-1.1c-.2.1-.3.4-.3.6h0ZM143.2,6.1c0,.6.3.9.9.9s.9-.3.9-.9-.3-.9-.9-.9-.9.3-.9.9Z"/>
          <path class="cls-1" d="M148.3,10.1V1.7h1.6v8.4s-1.6,0-1.6,0Z"/>
          <path class="cls-1" d="M153.1,8.6c.2.2.5.2.8.2.7,0,1.4,0,2,0h.3s0,1.2,0,1.2c-.9.2-1.8.3-2.5.3s-1.6-.2-2-.7c-.4-.5-.6-1.3-.6-2.3,0-2.2.9-3.2,2.6-3.2s2.6.9,2.6,2.7v1.1h-3.6c0,.4.1.6.3.8h0ZM154.8,6.6c0-.5,0-.8-.2-1s-.4-.3-.8-.3-.6,0-.8.3c-.2.2-.2.5-.2,1h2.1Z"/>
          <path class="cls-1" d="M157.6,3.4v-1.6h1.6v1.6h-1.6ZM157.6,10.1v-6h1.6v6h-1.6Z"/>
          <path class="cls-1" d="M162.9,4c.4,0,.9,0,1.6.2h.3c0,0,0,1.3,0,1.3-.6,0-1.1,0-1.4,0-.6,0-.9.1-1.1.3-.2.2-.3.7-.3,1.3s0,1.1.3,1.4c.2.2.6.4,1.1.4h1.4c0-.1,0,1.2,0,1.2-.9.2-1.5.2-2,.2-.9,0-1.5-.2-1.9-.8-.4-.5-.6-1.3-.6-2.4s.2-1.9.6-2.4c.4-.5,1-.7,1.9-.7h0Z"/>
          <path class="cls-1" d="M167.6,10.1h-1.6V1.7h1.6v2.7c.6-.3,1.1-.4,1.5-.4.8,0,1.4.2,1.7.7.3.5.5,1.2.5,2.2v3.2h-1.6v-3.2c0-.5,0-.9-.2-1.1s-.4-.4-.7-.4-.6,0-.9.1h-.2v4.6h0Z"/>
          <path class="cls-1" d="M172.6,10.1v-2h1.7v2h-1.7Z"/>
          <path class="cls-1" d="M180.8,1.7v8.4h-1.6v-.2c-.6.3-1,.4-1.4.4-.9,0-1.5-.2-1.8-.8s-.5-1.3-.5-2.4.2-1.9.6-2.4,1-.8,1.9-.8.6,0,1.1.1h.2c0,0,0-2.4,0-2.4h1.6,0ZM179.1,8.7h.2v-3.2c-.4,0-.8-.1-1.2-.1-.6,0-1,.6-1,1.7s0,1.1.2,1.3c.1.3.4.4.7.4s.7,0,1.1-.1h0Z"/>
          <path class="cls-1" d="M183.9,8.6c.2.2.5.2.8.2.7,0,1.4,0,2,0h.3s0,1.2,0,1.2c-.9.2-1.8.3-2.5.3s-1.6-.2-2-.7c-.4-.5-.6-1.3-.6-2.3,0-2.2.9-3.2,2.6-3.2s2.6.9,2.6,2.7v1.1h-3.6c0,.4.1.6.3.8h0ZM185.7,6.6c0-.5,0-.8-.2-1s-.4-.3-.8-.3-.6,0-.8.3c-.2.2-.2.5-.2,1h2.1Z"/>
          <path class="cls-2" d="M41.3,21.5c0,.5-.2.9-.6,1.1s-.9.4-1.6.4-1.2,0-1.6-.3c-.4-.2-.5-.5-.5-1s.2-.7.7-1.1c-.2-.1-.3-.4-.3-.7s0-.3.3-.6h0c-.4-.4-.6-.9-.6-1.4s.2-1,.5-1.2c.3-.3.8-.4,1.4-.4s.5,0,.8,0h.1s1.5,0,1.5,0v1h-.7c.1.2.2.4.2.6,0,.6-.2,1-.5,1.2-.3.2-.8.3-1.4.3s-.3,0-.4,0c0,.2,0,.3,0,.4s0,.2.2.2.3,0,.7,0c.8,0,1.3.1,1.5.3.3.2.4.5.4,1.1h0ZM38.2,21.6c0,.3.3.4,1,.4s1-.1,1-.5,0-.3-.2-.3c-.1,0-.3,0-.7,0h-.8c-.2.1-.2.3-.2.5h0ZM38.3,17.9c0,.4.2.7.7.7s.7-.2.7-.7-.2-.7-.7-.7-.7.2-.7.7Z"/>
          <path class="cls-2" d="M45.9,16.4v4.5h-1.2v-.2h-.2c-.1.1-.3.2-.5.3-.2,0-.3,0-.5,0-.6,0-1-.2-1.3-.5-.2-.4-.3-.9-.3-1.7v-2.4h1.2v2.4c0,.4,0,.8.1.9s.2.2.5.2.6,0,.8-.2v-3.4h1.2,0ZM42.4,15.6v-1.2h1.2v1.2s-1.2,0-1.2,0ZM44.4,15.6v-1.2h1.2v1.2s-1.2,0-1.2,0Z"/>
          <path class="cls-2" d="M48.2,20.9h-1.2v-4.5h1.2v.2c.4-.2.8-.4,1.1-.4.6,0,1,.2,1.2.5.2.4.3.9.3,1.6v2.4h-1.2v-2.4c0-.4,0-.7-.1-.9s-.3-.3-.5-.3-.5,0-.7.1h-.1v3.4h0Z"/>
          <path class="cls-2" d="M55.2,17.5c-.7-.1-1.3-.1-1.6-.1s-.5,0-.6,0-.1.1-.1.3,0,.2.2.2c.1,0,.4.1.9.2.5,0,.8.2,1,.4.2.2.3.5.3,1,0,1-.6,1.5-1.8,1.5s-.9,0-1.4-.2h-.3s0-1.1,0-1.1c.7.1,1.3.1,1.5.1s.5,0,.6,0,.2-.1.2-.3,0-.2-.2-.2c-.1,0-.4-.1-.9-.2-.5,0-.8-.2-1-.4s-.3-.5-.3-1,.2-.8.5-1.1c.3-.2.7-.4,1.2-.4s.8,0,1.5.2h.3s0,1,0,1h0Z"/>
          <path class="cls-2" d="M58.7,17.5h-1.1v1.8c0,.2,0,.3,0,.4,0,0,0,.1,0,.2,0,0,.2,0,.3,0h.7s0,.9,0,.9c-.4,0-.7.1-.9.1-.5,0-.9-.1-1.1-.4-.2-.2-.3-.7-.3-1.3v-1.9h-.5v-1h.5v-1.2h1.2v1.2h1.1v1h0Z"/>
          <path class="cls-2" d="M59.5,15.9v-1.2h1.2v1.2h-1.2ZM59.5,20.9v-4.5h1.2v4.5h-1.2Z"/>
          <path class="cls-2" d="M65.9,21.5c0,.5-.2.9-.6,1.1s-.9.4-1.6.4-1.2,0-1.6-.3c-.4-.2-.5-.5-.5-1s.2-.7.7-1.1c-.2-.1-.3-.4-.3-.7s0-.3.3-.6h0c-.4-.4-.6-.9-.6-1.4s.2-1,.5-1.2c.3-.3.8-.4,1.4-.4s.5,0,.8,0h.1s1.4,0,1.4,0v1h-.7c.1.2.2.4.2.6,0,.6-.2,1-.5,1.2s-.8.3-1.4.3-.3,0-.4,0c0,.2,0,.3,0,.4s0,.2.2.2.3,0,.7,0c.8,0,1.3.1,1.5.3.3.2.4.5.4,1.1h0ZM62.8,21.6c0,.3.3.4,1,.4s.9-.1.9-.5,0-.3-.2-.3c-.1,0-.3,0-.7,0h-.8c-.2.1-.2.3-.2.5h0ZM62.9,17.9c0,.4.2.7.7.7s.7-.2.7-.7-.2-.7-.7-.7-.7.2-.7.7Z"/>
          <path class="cls-2" d="M71.3,16.4h1.2v4.5h-1.2v-.2c-.4.2-.8.4-1.1.4-.6,0-1-.2-1.3-.5s-.3-.9-.3-1.7v-2.4h1.2v2.4c0,.4,0,.8.1.9s.2.2.5.2.5,0,.8-.1h.1v-3.4h0Z"/>
          <path class="cls-2" d="M74.8,20.9h-1.2v-4.5h1.2v.2c.4-.2.8-.4,1.1-.4.5,0,.9.1,1.1.4.6-.3,1.1-.4,1.5-.4s1,.2,1.2.5c.2.4.3.9.3,1.6v2.4h-1.2v-2.4c0-.4,0-.7-.1-.9,0-.2-.2-.3-.5-.3s-.4,0-.7.1h-.1c0,.5,0,.8,0,1.1v2.3h-1.2v-2.3c0-.4,0-.8-.1-.9s-.2-.3-.5-.3-.5,0-.7.1h-.1v3.4h0Z"/>
          <path class="cls-2" d="M81,17.5v-1.1h3.3v1.1l-1.9,2.3h1.9v1.1h-3.3v-1.1l1.9-2.3h-1.9Z"/>
          <path class="cls-2" d="M85.2,15.9v-1.2h1.2v1.2h-1.2ZM85.2,20.9v-4.5h1.2v4.5h-1.2Z"/>
          <path class="cls-2" d="M88.8,19.8c.1.1.3.2.6.2.6,0,1.1,0,1.5,0h.2s0,.9,0,.9c-.7.2-1.3.2-1.9.2s-1.2-.2-1.5-.5c-.3-.4-.5-1-.5-1.8,0-1.6.7-2.4,2-2.4s2,.7,2,2v.8h-2.7c0,.3,0,.5.2.6h0ZM90.1,18.3c0-.4,0-.6-.2-.8s-.3-.2-.6-.2-.5,0-.6.2c-.1.1-.2.4-.2.7h1.6,0Z"/>
          <path class="cls-2" d="M93.4,20.9h-1.2v-6.3h1.2v2c.4-.2.8-.3,1.1-.3.6,0,1,.2,1.2.5.2.4.3.9.3,1.6v2.4h-1.2v-2.4c0-.4,0-.7-.1-.8s-.3-.3-.5-.3-.5,0-.7.1h-.1v3.4h0Z"/>
          <path class="cls-2" d="M98.3,19.8c.1.1.3.2.6.2.6,0,1.1,0,1.5,0h.2s0,.9,0,.9c-.7.2-1.3.2-1.9.2s-1.2-.2-1.5-.5c-.3-.4-.5-1-.5-1.8,0-1.6.7-2.4,2-2.4s2,.7,2,2v.8h-2.7c0,.3,0,.5.2.6h0ZM99.7,18.3c0-.4,0-.6-.2-.8s-.3-.2-.6-.2-.5,0-.6.2c-.1.1-.2.4-.2.7h1.6,0Z"/>
          <path class="cls-2" d="M102.9,20.9h-1.2v-4.5h1.2v.2c.4-.2.8-.4,1.1-.4.6,0,1,.2,1.2.5.2.4.3.9.3,1.6v2.4h-1.2v-2.4c0-.4,0-.7-.1-.9s-.3-.3-.5-.3-.5,0-.7.1h-.1v3.4h0Z"/>
          <path class="cls-2" d="M109.6,14.9c.3-.2.8-.4,1.4-.4s1,.1,1.3.4.5.6.5,1,0,.8-.3,1-.5.5-1,.9l.9.9c0,0,0-.3.1-.5s0-.5,0-.6h1.2c0,.7-.2,1.3-.5,1.9l1,.9-.7.8-.9-.8c-.2.2-.5.4-.8.6-.3.1-.7.2-1,.2-.9,0-1.5-.2-1.9-.5-.4-.3-.6-.8-.6-1.4s0-.9.3-1.1c.2-.3.5-.5,1-.7-.2-.3-.4-.5-.5-.7,0-.2-.1-.4-.1-.7s.2-.8.5-1h0ZM110.7,20c.2,0,.5,0,.7-.1.2,0,.4-.1.5-.3l-1.6-1.6c-.4.2-.7.6-.7,1s.3.9,1,.9h0ZM110.3,16.1c0,.2.1.5.4.8l.2.2c.2-.2.4-.3.5-.5s.2-.3.2-.5c0-.4-.2-.6-.6-.6s-.6.2-.6.6h0Z"/>
          <path class="cls-2" d="M120.2,17.5c-.7-.1-1.3-.1-1.6-.1s-.5,0-.6,0c0,0-.1.1-.1.3s0,.2.2.2c.1,0,.4.1.9.2s.8.2,1,.4.3.5.3,1c0,1-.6,1.5-1.8,1.5s-.9,0-1.4-.2h-.3s0-1.1,0-1.1c.7.1,1.3.1,1.6.1s.5,0,.6,0c.1,0,.2-.1.2-.3s0-.2-.2-.2-.4-.1-.9-.2-.8-.2-1-.4-.3-.5-.3-1,.2-.8.5-1.1c.3-.2.7-.4,1.2-.4s.8,0,1.4.2h.3s0,1,0,1Z"/>
          <path class="cls-2" d="M121.2,22.8v-6.4h1.2v.2c.4-.2.7-.4,1-.4.6,0,1.1.2,1.3.5s.4,1,.4,1.9-.2,1.5-.5,1.8-.8.5-1.6.5-.4,0-.6,0h-.1s0,1.8,0,1.8h-1.2,0ZM123.2,17.4c-.2,0-.4,0-.7.1h-.1v2.4c.3,0,.5,0,.7,0,.3,0,.6-.1.7-.3s.2-.5.2-1c0-.8-.3-1.2-.8-1.2h0Z"/>
          <path class="cls-2" d="M129.6,17.8v1.9c0,.1,0,.2,0,.3,0,0,.1.1.2.1v.9c-.3,0-.6,0-.8,0-.2,0-.4-.1-.6-.2-.4.2-.9.3-1.3.3-.9,0-1.4-.5-1.4-1.5s.1-.8.4-1,.7-.3,1.2-.4h1v-.4c0-.2,0-.3-.1-.4s-.2-.1-.4-.1h-1.7c0,0,0-.8,0-.8.6-.2,1.2-.3,1.8-.3s1,.1,1.2.4c.3.2.4.6.4,1.1h0ZM127.5,19c-.3,0-.5.2-.5.5s.2.5.4.5.5,0,.8-.1h.1v-1s-.8,0-.8,0Z"/>
          <path class="cls-2" d="M130.7,20.9v-4.5h1.2v.5c.5-.3,1-.5,1.4-.6v1.2c-.5.1-.9.2-1.2.3h-.2v3.1s-1.2,0-1.2,0Z"/>
          <path class="cls-2" d="M135.3,19.8c.1.1.3.2.6.2.6,0,1.1,0,1.5,0h.2s0,.9,0,.9c-.7.2-1.3.2-1.9.2s-1.2-.2-1.5-.5-.5-1-.5-1.8c0-1.6.7-2.4,2-2.4s2,.7,2,2v.8h-2.7c0,.3,0,.5.2.6h0ZM136.6,18.3c0-.4,0-.6-.2-.8s-.3-.2-.6-.2-.5,0-.6.2-.2.4-.2.7h1.6,0Z"/>
          <path class="cls-2" d="M139.9,20.9h-1.2v-4.5h1.2v.2c.4-.2.8-.4,1.1-.4.6,0,1,.2,1.2.5.2.4.3.9.3,1.6v2.4h-1.2v-2.4c0-.4,0-.7-.1-.9,0-.2-.3-.3-.5-.3s-.5,0-.7.1h-.1v3.4h0Z"/>
        </g>
        <g id="On_Delivery">
          <path class="cls-1" d="M26.3,13.9h7.3l-2.3-5.1h-5v5.1h0Z"/>
          <circle class="cls-1" cx="6.9" cy="23.8" r="2.6"/>
          <circle class="cls-1" cx="26.7" cy="23.8" r="2.6"/>
          <path class="cls-1" d="M24.9,14.6v-6.6c0-.4.3-.7.7-.7h5.1l-.4-.9c-.4-.8-1.1-1.3-2-1.3h-5.6v17.5h.2c.6-2.1,2.8-3.4,5-2.8,1.3.4,2.4,1.4,2.8,2.8h.9c1.2,0,2.2-1,2.2-2.2v-5.1h-8c-.4,0-.7-.3-.7-.7h0Z"/>
          <path class="cls-2" d="M8,16.1l6.6-5.1-6.6-5.1v2.9H0v4.4h8v2.9h0Z"/>
          <path class="cls-1" d="M19,0H2.2C1,0,0,1,0,2.2v5.1h6.6v-1.5c0-.8.7-1.5,1.5-1.5s.6.1.9.3l6.6,5.1c.6.5.8,1.4.3,2.1,0,.1-.2.2-.3.3l-6.6,5.1c-.6.5-1.6.4-2.1-.3-.2-.3-.3-.6-.3-.9v-1.5H0v5.8c0,1.2,1,2.2,2.2,2.2h.9c.6-2.1,2.8-3.4,5-2.8,1.3.4,2.4,1.4,2.8,2.8h10.4V2.2c0-1.2-1-2.2-2.2-2.2Z"/>
        </g>
      </g>
    </g>
  </g>
</svg>