<svg width="161" height="26" viewBox="0 0 161 26" fill="none" xmlns="http://www.w3.org/2000/svg">
<path d="M25.5833 17.9923V25.45H21.4134V5.37922H25.3552V7.42761C26.6462 5.8612 28.5655 4.90156 30.9151 4.90156C34.9345 4.90156 37.9941 8.21512 37.9941 12.5615C37.9941 16.9079 34.9345 20.372 30.9151 20.372C28.742 20.372 26.8442 19.4597 25.579 17.9966L25.5833 17.9923ZM29.5768 16.7529C31.9006 16.7529 33.6219 14.9068 33.6219 12.6562C33.6219 10.4055 31.9049 8.51205 29.5768 8.51205C27.2487 8.51205 25.4542 10.4098 25.4542 12.6346C25.4542 14.8595 27.2487 16.7572 29.5768 16.7572V16.7529Z" fill="white"/>
<path d="M43.6832 19.89H39.5132V5.37919H43.4809V8.51202C43.9844 7.40176 45.5293 5.30174 47.6766 5.30174H48.1586V9.87618C47.9822 9.79872 47.6035 9.75138 47.3496 9.75138C45.1248 9.75138 43.6832 11.292 43.6832 12.3807V19.89Z" fill="white"/>
<path d="M65.854 12.6346C65.854 17.0843 62.2133 20.5958 57.3075 20.5958C52.4017 20.5958 48.7869 17.08 48.7869 12.6346C48.7869 8.18929 52.4276 4.67347 57.3075 4.67347C62.1875 4.67347 65.854 8.18929 65.854 12.6346ZM53.1634 12.6346C53.1634 15.0875 54.9321 17.0068 57.3075 17.0068C59.683 17.0068 61.4775 15.0617 61.4775 12.6346C61.4775 10.2076 59.7088 8.26245 57.3075 8.26245C54.9063 8.26245 53.1634 10.2076 53.1634 12.6346Z" fill="white"/>
<path d="M76.3927 19.8901H71.3363L65.3719 5.37927H70.0496L73.9183 15.6169L77.9376 5.37927H82.3098L76.3927 19.8901Z" fill="white"/>
<path d="M90.6497 20.5958C85.1371 20.5958 81.8278 17.2349 81.8278 12.6346C81.8278 8.03437 85.1414 4.67347 89.8923 4.67347C94.3677 4.67347 97.7545 8.03437 97.7545 12.6605V13.7492H86.2775C86.6303 16.0257 88.1494 17.2392 90.7013 17.2392C92.7755 17.2392 94.1913 16.5291 95.3016 15.5437L97.6512 18.0482C96.059 19.4898 93.8341 20.6001 90.6497 20.6001V20.5958ZM86.4023 10.9391H93.279C92.8228 9.14463 91.6351 8.08171 89.8406 8.08171C88.0461 8.08171 86.8584 9.14463 86.4023 10.9391Z" fill="white"/>
<path d="M103.366 19.8901H99.1961V5.37922H103.164V7.14789C104.05 6.08496 105.69 5.00052 107.915 5.00052C110.897 5.00052 113.122 7.04891 113.122 10.384V19.8901H108.926V11.6492C108.926 9.50181 107.712 8.69278 106.198 8.69278C104.881 8.69278 103.366 9.70407 103.366 11.3996V19.8944V19.8901Z" fill="white"/>
<path d="M117.472 19.8901H115.299V0.172196H117.421V7.17372C118.355 6.01182 120.076 5.00054 122.172 5.00054C125.382 5.00054 127.404 7.07474 127.404 10.4356V19.8901H125.231V11.0682C125.231 7.93541 123.385 6.94564 121.388 6.94564C119.719 6.94564 117.468 8.21082 117.468 10.8143V19.8901H117.472Z" fill="white"/>
<path d="M139.742 18.0698C138.808 19.2317 137.087 20.2688 134.991 20.2688C131.755 20.2688 129.733 18.1946 129.733 14.8337V5.37927H131.906V14.2011C131.906 17.3339 133.752 18.3237 135.749 18.3237C137.444 18.3237 139.669 17.0585 139.669 14.455V5.37927H141.842V19.8901H139.742V18.0698Z" fill="white"/>
<path d="M152.609 20.5227C150.006 20.5227 147.755 19.2317 146.365 17.3124V19.8901H144.265V0.172196H146.438V7.88377C147.828 5.986 150.053 4.75094 152.605 4.75094C157.003 4.75094 160.265 8.4432 160.265 12.6648C160.265 16.8863 157.003 20.527 152.605 20.527L152.609 20.5227ZM152.205 18.5776C155.565 18.5776 157.967 15.7718 157.967 12.6346C157.967 9.49752 155.565 6.69175 152.205 6.69175C148.844 6.69175 146.391 9.49752 146.391 12.6346C146.391 15.7718 148.869 18.5776 152.205 18.5776Z" fill="white"/>
<path d="M155.57 0.391603H154.984V0H156.59V0.391603H156.009V2.77995H155.57V0.391603Z" fill="white"/>
<path d="M157.252 0.809031V2.77996H156.813V0.00430754H157.257L158.216 1.53629L159.137 0.00430754H159.576V2.77996H159.137V0.817637L158.246 2.27647H158.173L157.248 0.809031H157.252Z" fill="white"/>
<path d="M14.0073 14.2913L13.1295 13.4135L11.8858 14.6571L12.7637 15.535C13.4522 16.2235 13.4522 17.3381 12.7637 18.0266C12.0752 18.7152 10.9606 18.7152 10.2721 18.0266L5.65458 13.4091L4.41092 14.6528L9.02839 19.2703C10.4055 20.6474 12.6346 20.6474 14.0117 19.2703C15.3887 17.8932 15.3887 15.6641 14.0117 14.287L14.0073 14.2913Z" fill="#65B8A3"/>
<path d="M4.77671 18.0267C4.08817 18.7152 2.97361 18.7152 2.28508 18.0267C1.59654 17.3381 1.59654 16.2236 2.28508 15.535L6.90255 10.9175L5.65889 9.67388L1.04141 14.2914C-0.335652 15.6684 -0.335652 17.8976 1.04141 19.2746C2.41848 20.6517 4.64761 20.6517 6.02467 19.2746L6.90255 18.3967L5.65889 17.1531L4.78101 18.031L4.77671 18.0267Z" fill="white"/>
<path d="M10.2678 7.54804C10.9563 6.85951 12.0709 6.85951 12.7594 7.54804C13.4479 8.23657 13.4479 9.35114 12.7594 10.0397L8.14192 14.6571L9.38559 15.9008L14.0031 11.2833C15.3801 9.90627 15.3801 7.67714 14.0031 6.30008C12.626 4.92301 10.3969 4.92301 9.0198 6.30008L8.14192 7.17795L9.38559 8.42162L10.2635 7.54374L10.2678 7.54804Z" fill="white"/>
<path d="M3.15865 10.9219L2.28077 10.044C1.59223 9.35545 1.59223 8.24089 2.28077 7.55235C2.9693 6.86382 4.08386 6.86382 4.7724 7.55235L9.57061 12.3506L10.8143 11.1069L6.01606 6.30869C4.63899 4.93162 2.40987 4.93162 1.0328 6.30869C-0.344267 7.68576 -0.344267 9.91488 1.0328 11.2919L1.91068 12.1698L3.15865 10.9219Z" fill="#65B8A3"/>
</svg>
