<svg id="Layer_1" data-name="Layer 1" xmlns="http://www.w3.org/2000/svg" width="754.9" height="215.8" viewBox="0 0 754.9 215.8"><g id="Layer_2" data-name="Layer 2"><path d="M199.17,110.11V17.71h17.4v92.5h-17.4Zm14.9-42.6V56.61h19.5c4.2,0,7.4-1.1,9.4-3.4a13,13,0,0,0,3-9,13,13,0,0,0-3-9c-2-2.2-5.1-3.4-9.4-3.4h-19.5V17.61H232c10.3,0,18.2,2.2,23.5,6.5s8.1,10.5,8.1,18.6v1.7c0,5.7-1.4,10.2-4.1,13.6a21.47,21.47,0,0,1-11.2,7.2,54.72,54.72,0,0,1-16.4,2.2H214Zm0,42.6V95.91H237c4.2,0,7.3-1.1,9.5-3.4s3.2-5.4,3.2-9.4-1.1-7.1-3.2-9.3-5.3-3.3-9.5-3.3h-22.9V59.61h21.6a54.49,54.49,0,0,1,16.3,2.2,22.24,22.24,0,0,1,11.2,7.3c2.7,3.4,4.1,8,4.1,13.7v1.7a25.32,25.32,0,0,1-3.6,13.8,22.5,22.5,0,0,1-10.6,8.7,44.4,44.4,0,0,1-17.4,3.1Z" fill="#fff"/><path d="M306.87,111.61c-7.8,0-13.9-2.6-18.2-7.7s-6.4-12.8-6.4-23V41.51h17.4v40.9c0,4.2,1.2,7.5,3.5,9.9a12.65,12.65,0,0,0,9.5,3.7,13,13,0,0,0,9.8-3.9c2.5-2.6,3.8-6.1,3.8-10.5V41.51h17.4v68H330V80.61h1.4a49.62,49.62,0,0,1-2.6,17.1,21.06,21.06,0,0,1-7.9,10.4c-3.5,2.4-7.9,3.5-13.1,3.5h-.9Z" fill="#fff"/><path d="M388.27,111.61c-9.3,0-16.6-2-21.9-5.9a20.17,20.17,0,0,1-8.3-16.4h15.6a9.68,9.68,0,0,0,3.9,6.4c2.4,1.9,6,2.9,11,2.9s7.5-.7,9.9-2.2a6.77,6.77,0,0,0,3.7-6.1,5.93,5.93,0,0,0-2.8-5.4c-1.9-1.3-5.1-2.2-9.6-2.6l-6-.6c-7.6-.8-13.4-3-17.5-6.5s-6.1-8.2-6.1-14,1.2-8.6,3.5-11.7a21.06,21.06,0,0,1,9.7-7.2,39.14,39.14,0,0,1,14.2-2.4c8.3,0,15.1,1.8,20.2,5.5s7.9,9,8.1,16.1h-15.6a8.28,8.28,0,0,0-3.5-6c-2.2-1.7-5.3-2.5-9.4-2.5s-6.5.7-8.5,2.1a6.39,6.39,0,0,0-3,5.5,5.7,5.7,0,0,0,2.4,5c1.6,1.2,4.3,2,7.9,2.4l6,.6c8,.8,14.3,3,18.8,6.6a17.61,17.61,0,0,1,6.8,14.5c0,6.1-1.2,8.4-3.7,11.7a24,24,0,0,1-10.3,7.7,41.06,41.06,0,0,1-15.6,2.7h0Z" fill="#fff"/><path d="M426,54.61v-13h26.9v13Zm15.9-21.1c-3.4,0-5.9-.9-7.6-2.7a9.91,9.91,0,0,1-2.4-6.8,9.49,9.49,0,0,1,2.4-6.7c1.6-1.7,4.1-2.6,7.6-2.6s5.9.9,7.5,2.6a9.49,9.49,0,0,1,2.4,6.7,9.91,9.91,0,0,1-2.4,6.8Q447,33.51,441.87,33.51Zm-6.4,76V41.61h17.4v67.9Z" fill="#fff"/><path d="M472.87,109.51V41.61h13.7v29.1h-1.3c0-6.9.9-12.7,2.7-17.3a21.11,21.11,0,0,1,8.2-10.4c3.6-2.3,8.1-3.5,13.6-3.5h.7c8.1,0,14.2,2.6,18.4,7.8s6.2,13,6.2,23.3v38.9h-17.4V69.11a14.19,14.19,0,0,0-3.6-10.1c-2.4-2.6-5.6-3.9-9.8-3.9A14,14,0,0,0,494,59c-2.6,2.6-3.9,6.1-3.9,10.6v39.9h-17.2Z" fill="#fff"/><path d="M584.17,111.91a36.64,36.64,0,0,1-15.3-3,30.82,30.82,0,0,1-10.9-8.1,35.43,35.43,0,0,1-6.5-11.3,37.32,37.32,0,0,1-2.2-12.7v-2.4a38.75,38.75,0,0,1,2.2-13.1,33,33,0,0,1,6.5-11.2,31.75,31.75,0,0,1,10.7-7.9,34.31,34.31,0,0,1,14.8-2.9c5.6,0,13.5,1.6,18.4,4.8a30.23,30.23,0,0,1,11.2,12.6,38.31,38.31,0,0,1,3.8,16.8v6.2h-60.1V69.11H606l-5.4,5.2a28.65,28.65,0,0,0-1.9-11.1,14.51,14.51,0,0,0-5.7-7.1,16.72,16.72,0,0,0-9.6-2.5,17.3,17.3,0,0,0-9.7,2.6,16.07,16.07,0,0,0-6.1,7.6,30,30,0,0,0-2.1,11.8,29.28,29.28,0,0,0,2,11.3,16.23,16.23,0,0,0,6.1,7.7,18.6,18.6,0,0,0,10.5,2.8,19.07,19.07,0,0,0,10.4-2.6,11,11,0,0,0,5.1-6.3h16a28.2,28.2,0,0,1-16.6,20.3,37.36,37.36,0,0,1-14.9,2.9h0Z" fill="#fff"/><path d="M655.87,111.61c-9.3,0-16.6-2-21.9-5.9a20.17,20.17,0,0,1-8.3-16.4h15.6a9.68,9.68,0,0,0,3.9,6.4c2.3,1.9,6,2.9,11,2.9s7.5-.7,9.9-2.2a7,7,0,0,0,3.7-6.1,5.93,5.93,0,0,0-2.8-5.4c-1.9-1.3-5.1-2.2-9.6-2.6l-6-.6c-7.6-.8-13.4-3-17.5-6.5s-6.1-8.2-6.1-14,1.2-8.6,3.5-11.7a21.06,21.06,0,0,1,9.7-7.2,39.14,39.14,0,0,1,14.2-2.4c8.3,0,15.1,1.8,20.2,5.5s7.9,9,8.1,16.1h-15.6a8.28,8.28,0,0,0-3.5-6c-2.2-1.7-5.3-2.5-9.4-2.5s-6.5.7-8.5,2.1a6.39,6.39,0,0,0-3,5.5,5.7,5.7,0,0,0,2.4,5c1.6,1.2,4.3,2,7.9,2.4l6,.6c8,.8,14.3,3,18.8,6.6a17.61,17.61,0,0,1,6.8,14.5c0,6.1-1.2,8.4-3.7,11.7a24,24,0,0,1-10.3,7.7,41.06,41.06,0,0,1-15.6,2.7h0Z" fill="#fff"/><path d="M724.47,111.61c-9.3,0-16.6-2-21.9-5.9a20.17,20.17,0,0,1-8.3-16.4h15.6a9.68,9.68,0,0,0,3.9,6.4c2.3,1.9,6,2.9,11,2.9s7.5-.7,9.9-2.2a7,7,0,0,0,3.7-6.1,5.93,5.93,0,0,0-2.8-5.4c-1.9-1.3-5.1-2.2-9.6-2.6l-6-.6c-7.6-.8-13.4-3-17.5-6.5s-6.1-8.2-6.1-14,1.2-8.6,3.5-11.7a21.06,21.06,0,0,1,9.7-7.2,39.14,39.14,0,0,1,14.2-2.4c8.3,0,15.1,1.8,20.2,5.5s7.9,9,8.1,16.1h-15.6a8.28,8.28,0,0,0-3.5-6c-2.2-1.7-5.3-2.5-9.4-2.5s-6.5.7-8.5,2.1a6.39,6.39,0,0,0-3,5.5,5.7,5.7,0,0,0,2.4,5c1.6,1.2,4.3,2,7.9,2.4l6,.6c8,.8,14.3,3,18.8,6.6a17.61,17.61,0,0,1,6.8,14.5c0,6.1-1.2,8.4-3.7,11.7a24,24,0,0,1-10.3,7.7,41.06,41.06,0,0,1-15.6,2.7h0Z" fill="#fff"/><path d="M235.87,208.11a39.31,39.31,0,0,1-16.8-3.4,32.15,32.15,0,0,1-11.4-9,39,39,0,0,1-6.5-12,40.45,40.45,0,0,1-2.1-12.5V169a42.38,42.38,0,0,1,2.1-13.2,34.43,34.43,0,0,1,6.6-11.8,31.24,31.24,0,0,1,11.3-8.5,38.69,38.69,0,0,1,16.2-3.2,40,40,0,0,1,17,3.5,28.66,28.66,0,0,1,11.6,9.9,31.61,31.61,0,0,1,5.2,14.8H255a16.92,16.92,0,0,0-3.5-8.3,16,16,0,0,0-6.9-5.1,25.39,25.39,0,0,0-9.4-1.7,24,24,0,0,0-9.5,1.8,17.08,17.08,0,0,0-6.9,5.2,24.85,24.85,0,0,0-4.2,7.9,32,32,0,0,0-1.4,10.1,34.31,34.31,0,0,0,1.4,9.9,23.2,23.2,0,0,0,4.3,7.9,19.78,19.78,0,0,0,7.1,5.3,25.56,25.56,0,0,0,23.4-2.1,16.7,16.7,0,0,0,6.8-11.2h14.1a33.92,33.92,0,0,1-5.2,14.1,30.58,30.58,0,0,1-11.6,10.3c-4.9,2.6-10.8,3.8-17.7,3.8h0Z" fill="#2da7df"/><path d="M306.87,208.11a32.4,32.4,0,0,1-12.5-2.3,27.14,27.14,0,0,1-9.2-6.2,26.66,26.66,0,0,1-5.7-8.8,27.68,27.68,0,0,1-1.9-10.3v-2.1a28.42,28.42,0,0,1,2-10.5,27.37,27.37,0,0,1,5.8-8.9,26.91,26.91,0,0,1,9.2-6.1,34.93,34.93,0,0,1,24.4,0,26.91,26.91,0,0,1,9.2,6.1,27.37,27.37,0,0,1,5.8,8.9,28.42,28.42,0,0,1,2,10.5v2.1a27.68,27.68,0,0,1-1.9,10.3,26.66,26.66,0,0,1-5.7,8.8,27.14,27.14,0,0,1-9.2,6.2,32.25,32.25,0,0,1-12.4,2.3h.1Zm0-11.7a15.15,15.15,0,0,0,8.5-2.2,14.42,14.42,0,0,0,5.2-6,19.75,19.75,0,0,0,1.8-8.6,20.2,20.2,0,0,0-1.8-8.7,14.65,14.65,0,0,0-5.3-6,16.76,16.76,0,0,0-16.6,0,15.64,15.64,0,0,0-5.4,6,18.58,18.58,0,0,0-1.9,8.7,19.44,19.44,0,0,0,1.8,8.6,14.65,14.65,0,0,0,5.3,6,15.15,15.15,0,0,0,8.5,2.2h-.1Z" fill="#2da7df"/><path d="M348.17,206.21v-53.6H359v23h-1a36.42,36.42,0,0,1,2.2-13.7,16.87,16.87,0,0,1,6.5-8.2,19.78,19.78,0,0,1,10.7-2.8h.6c6.4,0,11.2,2.1,14.5,6.2s4.9,10.3,4.9,18.4v30.7h-13.7v-31.9a11.16,11.16,0,0,0-2.8-8,10.23,10.23,0,0,0-7.7-3.1,10.93,10.93,0,0,0-8.1,3.1,11.49,11.49,0,0,0-3.1,8.3v31.5h-13.7Z" fill="#2da7df"/><path d="M412.07,206.21v-53.6h10.8v23h-1a36.42,36.42,0,0,1,2.2-13.7,16.87,16.87,0,0,1,6.5-8.2,19.78,19.78,0,0,1,10.7-2.8h.6c6.4,0,11.2,2.1,14.5,6.2s4.9,10.3,4.9,18.4v30.7h-13.7v-31.9a11.16,11.16,0,0,0-2.8-8,10.23,10.23,0,0,0-7.7-3.1,10.93,10.93,0,0,0-8.1,3.1,11.09,11.09,0,0,0-3.1,8.3v31.5h-13.7Z" fill="#2da7df"/><path d="M500,208.11a28.72,28.72,0,0,1-12.1-2.4,25.17,25.17,0,0,1-8.6-6.4,26.43,26.43,0,0,1-5.1-8.9,29,29,0,0,1-1.7-10.1v-1.9a32.24,32.24,0,0,1,1.7-10.3,27.17,27.17,0,0,1,5.1-8.9,24.84,24.84,0,0,1,8.4-6.2,28.24,28.24,0,0,1,11.6-2.3c4.4,0,10.6,1.3,14.6,3.8a23.6,23.6,0,0,1,8.8,10,29.83,29.83,0,0,1,3,13.3v4.9h-47.5v-8.4h38.9l-4.2,4.1a23.13,23.13,0,0,0-1.5-8.8,12,12,0,0,0-4.5-5.6,13.5,13.5,0,0,0-7.5-2,13.64,13.64,0,0,0-7.7,2.1,13.13,13.13,0,0,0-4.8,6,23.82,23.82,0,0,0-1.6,9.3,21.78,21.78,0,0,0,1.6,8.9,12.9,12.9,0,0,0,13.1,8.3,15.31,15.31,0,0,0,8.2-2,8.78,8.78,0,0,0,4-5h12.6a23.42,23.42,0,0,1-4.5,9.7,21.76,21.76,0,0,1-8.5,6.4A29.22,29.22,0,0,1,500,208h0Z" fill="#2da7df"/><path d="M561,208.11a28.08,28.08,0,0,1-12.1-2.4,25.85,25.85,0,0,1-8.5-6.3,25.51,25.51,0,0,1-5.1-8.9,31.49,31.49,0,0,1-1.7-10.1v-1.9a32.85,32.85,0,0,1,1.7-10.4,25.75,25.75,0,0,1,5.2-8.9A24.29,24.29,0,0,1,549,153a30.82,30.82,0,0,1,24.3.4,21.66,21.66,0,0,1,12.5,18.7h-13.3a10.5,10.5,0,0,0-3.5-6.9,12,12,0,0,0-8.2-2.8c-3.4,0-5.5.7-7.5,2.2a13.11,13.11,0,0,0-4.5,6,23.32,23.32,0,0,0-1.5,8.7,25.42,25.42,0,0,0,1.4,8.6,11.85,11.85,0,0,0,4.4,6,12.54,12.54,0,0,0,7.7,2.2,11.07,11.07,0,0,0,6.1-1.3,10.23,10.23,0,0,0,4.1-3.6,11.27,11.27,0,0,0,1.9-5.1h13.3a22.15,22.15,0,0,1-3.8,11.4,23,23,0,0,1-9,7.6,28.6,28.6,0,0,1-12.7,2.8h0Z" fill="#2da7df"/><path d="M590.47,162.71v-10.1h37.9v10.1Zm30.2,44.2a32.9,32.9,0,0,1-12.2-1.9,12.94,12.94,0,0,1-7.1-6.5c-1.6-3.1-2.4-7.2-2.4-12.4v-48.5h12.9V187c0,2.6.6,4.7,2,6.1s3.4,2.1,6.1,2.1h8.4v11.7Z" fill="#2da7df"/><path d="M663.57,208.11a28.72,28.72,0,0,1-12.1-2.4,25.17,25.17,0,0,1-8.6-6.4,26.43,26.43,0,0,1-5.1-8.9,29,29,0,0,1-1.7-10.1v-1.9a32.24,32.24,0,0,1,1.7-10.3,27.17,27.17,0,0,1,5.1-8.9,24.84,24.84,0,0,1,8.4-6.2,28.24,28.24,0,0,1,11.6-2.3c4.4,0,10.6,1.3,14.6,3.8a23.6,23.6,0,0,1,8.8,10,29.83,29.83,0,0,1,3,13.3v4.9h-47.5v-8.4h38.9l-4.2,4.1a23.13,23.13,0,0,0-1.5-8.8,12,12,0,0,0-4.5-5.6,13.5,13.5,0,0,0-7.5-2,13.64,13.64,0,0,0-7.7,2.1,13.13,13.13,0,0,0-4.8,6,23.82,23.82,0,0,0-1.6,9.3,21.78,21.78,0,0,0,1.6,8.9,12.9,12.9,0,0,0,13.1,8.3,15.31,15.31,0,0,0,8.2-2,8.78,8.78,0,0,0,4-5h12.6a23.42,23.42,0,0,1-4.5,9.7,21.76,21.76,0,0,1-8.5,6.4,29.22,29.22,0,0,1-11.8,2.3h0Z" fill="#2da7df"/><path d="M723,208a25.43,25.43,0,0,1-10.4-2.1,24,24,0,0,1-8.2-5.8,25.77,25.77,0,0,1-5.3-8.7,29.2,29.2,0,0,1-1.9-10.8v-2.1a32.21,32.21,0,0,1,1.8-10.8,26.43,26.43,0,0,1,5.1-8.8,23.47,23.47,0,0,1,8-5.9,25.1,25.1,0,0,1,10.4-2.1,23.36,23.36,0,0,1,11.1,2.7,19.26,19.26,0,0,1,7.6,8.1,31.7,31.7,0,0,1,3.2,13.6l-4-4.7v-36.5h13.7v72h-10.8v-22.8h2.4c-.2,5.5-1.3,10-3.4,13.7a20.4,20.4,0,0,1-8,8.2,23.31,23.31,0,0,1-11.3,2.7h0Zm3-11.6a15.29,15.29,0,0,0,7.4-1.8,14.43,14.43,0,0,0,5.4-5.3,16.59,16.59,0,0,0,2-8.2v-3.9a13.87,13.87,0,0,0-2.1-7.9,14.11,14.11,0,0,0-5.4-4.9,16.33,16.33,0,0,0-7.3-1.7,15.21,15.21,0,0,0-7.8,2.1,14.12,14.12,0,0,0-5.3,6,19.86,19.86,0,0,0-1.9,9,19.16,19.16,0,0,0,2,8.9,14.68,14.68,0,0,0,5.4,5.9,14.35,14.35,0,0,0,7.7,2.1h0Z" fill="#2da7df"/><path d="M177.67,39.11l-7.9,6.3-.9.8v-.5a131,131,0,0,1-42.2-7.4c-13.6-4.9-25.9-11.9-36.2-21.5-6,4.2-11.6,8.7-17.6,12.3-18.4,11-38.6,16-59.9,16.5-1.5,0-2,.4-2.1,2v.3l-1.6-1.3-7-6.4a4.87,4.87,0,0,1,.1-1.2,16.63,16.63,0,0,1,.4-2.6c16.3.3,32.2-1.4,47.5-6.9a99.11,99.11,0,0,0,39.9-26.3,98.32,98.32,0,0,0,40.1,26.4c15.3,5.5,31.1,7.1,47.4,6.8a26.6,26.6,0,0,0,.3,2.8h0Z" fill="#fff"/><path d="M172.27,111.11a169.81,169.81,0,0,1-10.5,28.3c-14.6,31.1-37.4,54.5-67,71.6-3.6,2.1-6.1,2.1-9.7,0-39.5-23-64.7-55.7-76.8-97.6l5,2.4,2.7,1.5h0l4,2.2c.5,1.4,1,2.7,1.5,4.1,12.9,34.1,35.4,60,66.8,78.3,1.1.6,1.9.8,3,0,23.8-13.9,43.2-32.4,56.7-56.6a169.46,169.46,0,0,0,12.1-26.9h0l.5-.3h0c0-.1,10.2-6.4,10.2-6.4l1.4-.8h0Z" fill="#2da7df"/><path d="M129.47,125.71c-10.2-8.3-20.4-16.7-30.7-25a1.56,1.56,0,0,0-1.5-.1c-1.9.7-3.7,1.6-5.6,2.3-5.7,1.8-11.3,1.6-16.6-1.4a5.81,5.81,0,0,1-1.9-1.6c-1.2-1.8-.5-4,1.6-5.2,4-2.2,8.1-4.3,12.1-6.4v-.4a31,31,0,0,0-4.3-.2,195.84,195.84,0,0,1-26.4,2.2,2,2,0,0,0-2,1.2c-5.7,9.4-11.5,18.8-17.3,28.1a5.39,5.39,0,0,0-.7,1.3c1.8,1.4,3.5,2.7,5.3,4,1.9-1.7,3.7-3.3,5.6-4.8a6.92,6.92,0,0,1,11.2,4.2,7,7,0,0,0,.3,1.4,5.74,5.74,0,0,1,.7-.4,7.15,7.15,0,0,1,11.5,5.9,6.88,6.88,0,0,0,.2,1.3,7.41,7.41,0,0,1,5.8,1.6h0l1.7,1.9a.31.31,0,0,0,.2-.1c.3,1.7.6,3.4.9,5.2,3-.3,5.6.6,7.2,3.3s1.1,5.6-.7,8.2c3,1.7,5.9,3.4,8.8,5.1a3,3,0,0,0,.8.4,4.86,4.86,0,0,0,4.7-8.5c-4.5-3.1-9.1-6.3-13.6-9.4-.6-.4-1.5-.9-.8-1.8s1.4-.2,2,.2c1.2.8,2.3,1.6,3.5,2.4,4.9,3.4,9.8,6.9,14.8,10.2a4.83,4.83,0,0,0,7.6-2.9c.5-2.2-.5-3.9-2.3-5.2-5.9-4.2-11.8-8.4-17.7-12.5a4.36,4.36,0,0,1-1-.8,1.05,1.05,0,0,1,0-1.2,1.37,1.37,0,0,1,1.1-.4c.3,0,.7.4,1,.6l9.2,6.5c3.8,2.7,7.5,5.4,11.3,8a5,5,0,0,0,7-1.2,5.11,5.11,0,0,0-1.1-7.1,17,17,0,0,0-1.4-1c-6.9-5-13.9-10-20.8-15-.6-.4-1.4-.9-.8-1.8s1.3-.4,1.9,0c.3.2.5.4.7.5,7.4,5.4,14.9,10.7,22.3,16.1a5,5,0,1,0,6.2-7.9h0Z" fill="#fff"/><path d="M121.47,89.31a17.85,17.85,0,0,1-13.8.5c-3-1.1-6-2-9-3a6.53,6.53,0,0,0-5.3.3c-5.9,3.1-11.8,6.2-17.6,9.3-1.5.8-1.5,2.2,0,3a17.17,17.17,0,0,0,10.6,2.4A25.1,25.1,0,0,0,97,98.31a1.89,1.89,0,0,1,2.6.3c1.2,1.1,2.6,2.1,3.9,3.2,9.8,8,19.6,15.9,29.3,23.9l9-9c-5.8-9.4-11.6-18.9-17.6-28.6-1,.4-1.8.7-2.7,1.1h0Z" fill="#2da7df"/><path d="M67.47,127.11a4.91,4.91,0,0,0-7.2-.4c-3.4,2.9-6.7,5.9-10,8.8a5,5,0,0,0-1.7,4,4.77,4.77,0,0,0,3.1,4.4,4.72,4.72,0,0,0,5.4-.8c3.4-2.9,6.7-5.8,10-8.8a4.91,4.91,0,0,0,.4-7.2Z" fill="#2da7df"/><path d="M76.87,137c-.9-1.9-2.4-3-5.1-3a7,7,0,0,0-2.4,1.1c-3.2,2.6-6.3,5.4-9.3,8.2a4.94,4.94,0,0,0,6.5,7.4c3.2-2.7,6.4-5.4,9.4-8.3a4.42,4.42,0,0,0,1-5.3h0Z" fill="#2da7df"/><path d="M55.27,121.81a4.76,4.76,0,0,0-6.7-.7c-2.4,1.9-4.7,4-7,6.1a4.71,4.71,0,0,0-1,5.4c.9,2,2.4,2.9,5.1,3.1a5.67,5.67,0,0,0,2.4-1.1c2.4-1.9,4.7-4,7-6.1a4.83,4.83,0,0,0,.2-6.7Z" fill="#2da7df"/><path d="M83.07,143.11a4.85,4.85,0,0,0-5.4.6c-1.8,1.5-3.6,3.1-5.4,4.7a4.93,4.93,0,0,0,6.5,7.4c1.8-1.5,3.6-3.1,5.4-4.7a4.93,4.93,0,0,0,1.6-4,4.46,4.46,0,0,0-2.7-4Z" fill="#2da7df"/><path d="M55.17,85.71c-7.7,12.5-15.3,25-23,37.5l-7.5-4.2-5.9-3.3h0l-4.2-2.3-7.2-3.5c-1.4-5.3-2.6-10.8-3.6-16.4a182.34,182.34,0,0,1-2.1-50l5.6,5.1,3.2,2.5,22.9,17.8v0c7.3,5.6,14.5,11.2,21.8,16.8Z" fill="#fff"/><path d="M173.27,107.51l-3.7,2.1-8,4.9-4,2.4h0c-.6.3-1.2.7-1.8,1-2.7,1.5-5.4,3-8.1,4.6q-11.55-18.75-23-37.5c7.3-5.6,14.5-11.2,21.8-16.9h0l22.8-18.8,2.2-1.8,6.5-5.2c.3,2.6.5,5.1.6,7.6a194.48,194.48,0,0,1-5.4,57.6h.1Z" fill="#2da7df"/></g></svg>