<?xml version="1.0" encoding="UTF-8"?>
<svg xmlns="http://www.w3.org/2000/svg" version="1.1" viewBox="0 0 754.9 215.8">
  <defs>
    <style>
      .cls-1 {
        fill: #2da7df;
      }

      .cls-2 {
        fill: #fff;
      }

      .cls-3 {
        fill: #203b72;
      }
    </style>
  </defs>
  <!-- Generator: Adobe Illustrator 28.7.2, SVG Export Plug-In . SVG Version: 1.2.0 Build 154)  -->
  <g>
    <g id="Layer_2">
      <rect class="cls-2" x="-36.5" y="-475.3" width="1271.7" height="456.3"/>
      <g id="Layer_1-2">
        <g>
          <g>
            <g>
              <path class="cls-3" d="M199.1,110.2V17.8h17.4v92.5h-17.4ZM214,67.6v-10.9h19.5c4.2,0,7.4-1.1,9.4-3.4s3-5.2,3-9-1-6.7-3-9c-2-2.2-5.1-3.4-9.4-3.4h-19.5v-14.2h17.9c10.3,0,18.2,2.2,23.5,6.5,5.4,4.3,8.1,10.5,8.1,18.6v1.7c0,5.7-1.4,10.2-4.1,13.6-2.7,3.4-6.4,5.8-11.2,7.2-4.8,1.5-10.2,2.2-16.4,2.2h-17.9ZM214,110.2v-14.2h22.9c4.2,0,7.3-1.1,9.5-3.4s3.2-5.4,3.2-9.4-1.1-7.1-3.2-9.3c-2.2-2.2-5.3-3.3-9.5-3.3h-22.9v-10.9h21.6c6.1,0,11.5.7,16.3,2.2s8.5,3.9,11.2,7.3c2.7,3.4,4.1,8,4.1,13.7v1.7c0,5.4-1.2,10-3.6,13.8-2.4,3.8-5.9,6.7-10.6,8.7-4.7,2-10.5,3.1-17.4,3.1h-21.6Z"/>
              <path class="cls-3" d="M306.8,111.7c-7.8,0-13.9-2.6-18.2-7.7-4.3-5.2-6.4-12.8-6.4-23v-39.4h17.4v40.9c0,4.2,1.2,7.5,3.5,9.9s5.5,3.7,9.5,3.7,7.3-1.3,9.8-3.9c2.5-2.6,3.8-6.1,3.8-10.5v-40.1h17.4v68h-13.7v-28.9h1.4c0,6.8-.9,12.5-2.6,17.1-1.7,4.6-4.4,8-7.9,10.4s-7.9,3.5-13.1,3.5h-.8Z"/>
              <path class="cls-3" d="M388.2,111.7c-9.3,0-16.6-2-21.9-5.9-5.3-4-8.1-9.4-8.3-16.4h15.6c.3,2.3,1.5,4.5,3.9,6.4s6,2.9,11,2.9,7.5-.7,9.9-2.2c2.5-1.5,3.7-3.5,3.7-6.1s-.9-4-2.8-5.4c-1.9-1.3-5.1-2.2-9.6-2.6l-6-.6c-7.6-.8-13.4-3-17.5-6.5s-6.1-8.2-6.1-14,1.2-8.6,3.5-11.7c2.3-3.2,5.6-5.6,9.7-7.2s8.9-2.4,14.2-2.4c8.3,0,15.1,1.8,20.2,5.5,5.2,3.7,7.9,9,8.1,16.1h-15.6c-.2-2.3-1.3-4.3-3.5-6s-5.3-2.5-9.4-2.5-6.5.7-8.5,2.1c-2,1.4-3,3.2-3,5.5s.8,3.8,2.4,5c1.6,1.2,4.3,2,7.9,2.4l6,.6c8,.8,14.3,3,18.8,6.6,4.5,3.6,6.8,8.4,6.8,14.5s-1.2,8.4-3.7,11.7-5.9,5.9-10.3,7.7-9.6,2.7-15.6,2.7h0Z"/>
              <path class="cls-3" d="M425.9,54.7v-13h26.9v13h-26.9ZM441.8,33.6c-3.4,0-5.9-.9-7.6-2.7-1.6-1.8-2.4-4.1-2.4-6.8s.8-5,2.4-6.7c1.6-1.7,4.1-2.6,7.6-2.6s5.9.9,7.5,2.6c1.6,1.7,2.4,4,2.4,6.7s-.8,5-2.4,6.8c-1.6,1.8-4.1,2.7-7.5,2.7ZM435.4,109.6V41.7h17.4v67.9h-17.4Z"/>
              <path class="cls-3" d="M472.8,109.6V41.7h13.7v29.1h-1.3c0-6.9.9-12.7,2.7-17.3,1.8-4.6,4.6-8.1,8.2-10.4,3.6-2.3,8.1-3.5,13.6-3.5h.7c8.1,0,14.2,2.6,18.4,7.8,4.2,5.2,6.2,13,6.2,23.3v38.9h-17.4v-40.4c0-4.2-1.2-7.5-3.6-10.1-2.4-2.6-5.6-3.9-9.8-3.9s-7.7,1.3-10.3,3.9-3.9,6.1-3.9,10.6v39.9h-17.4,0Z"/>
              <path class="cls-3" d="M584.1,112c-5.8,0-10.9-1-15.3-3s-8-4.7-10.9-8.1c-2.9-3.4-5-7.1-6.5-11.3-1.5-4.2-2.2-8.4-2.2-12.7v-2.4c0-4.5.7-8.9,2.2-13.1,1.5-4.2,3.6-8,6.5-11.2,2.9-3.3,6.4-5.9,10.7-7.9,4.2-2,9.2-2.9,14.8-2.9s13.5,1.6,18.4,4.8c5,3.2,8.7,7.4,11.2,12.6,2.5,5.2,3.8,10.8,3.8,16.8v6.2h-60.1v-10.6h49.2l-5.4,5.2c0-4.3-.6-8-1.9-11.1-1.3-3.1-3.1-5.5-5.7-7.1-2.5-1.7-5.7-2.5-9.6-2.5s-7.1.9-9.7,2.6c-2.7,1.7-4.7,4.3-6.1,7.6-1.4,3.3-2.1,7.2-2.1,11.8s.7,8,2,11.3c1.3,3.3,3.4,5.9,6.1,7.7s6.2,2.8,10.5,2.8,7.7-.9,10.4-2.6c2.7-1.7,4.4-3.8,5.1-6.3h16c-1,4.7-2.9,8.7-5.8,12.2-2.8,3.5-6.4,6.2-10.8,8.1-4.4,1.9-9.4,2.9-14.9,2.9h0Z"/>
              <path class="cls-3" d="M655.8,111.7c-9.3,0-16.6-2-21.9-5.9-5.3-4-8.1-9.4-8.3-16.4h15.6c.3,2.3,1.5,4.5,3.9,6.4,2.3,1.9,6,2.9,11,2.9s7.5-.7,9.9-2.2,3.7-3.5,3.7-6.1-.9-4-2.8-5.4c-1.9-1.3-5.1-2.2-9.6-2.6l-6-.6c-7.6-.8-13.4-3-17.5-6.5s-6.1-8.2-6.1-14,1.2-8.6,3.5-11.7c2.3-3.2,5.6-5.6,9.7-7.2,4.1-1.6,8.9-2.4,14.2-2.4,8.3,0,15.1,1.8,20.2,5.5,5.2,3.7,7.9,9,8.1,16.1h-15.6c-.2-2.3-1.3-4.3-3.5-6s-5.3-2.5-9.4-2.5-6.5.7-8.5,2.1c-2,1.4-3,3.2-3,5.5s.8,3.8,2.4,5c1.6,1.2,4.3,2,7.9,2.4l6,.6c8,.8,14.3,3,18.8,6.6s6.8,8.4,6.8,14.5-1.2,8.4-3.7,11.7-5.9,5.9-10.3,7.7-9.6,2.7-15.6,2.7h0Z"/>
              <path class="cls-3" d="M724.4,111.7c-9.3,0-16.6-2-21.9-5.9-5.3-4-8.1-9.4-8.3-16.4h15.6c.3,2.3,1.5,4.5,3.9,6.4,2.3,1.9,6,2.9,11,2.9s7.5-.7,9.9-2.2,3.7-3.5,3.7-6.1-.9-4-2.8-5.4c-1.9-1.3-5.1-2.2-9.6-2.6l-6-.6c-7.6-.8-13.4-3-17.5-6.5-4.1-3.5-6.1-8.2-6.1-14s1.2-8.6,3.5-11.7c2.3-3.2,5.6-5.6,9.7-7.2,4.1-1.6,8.9-2.4,14.2-2.4,8.3,0,15.1,1.8,20.2,5.5,5.2,3.7,7.9,9,8.1,16.1h-15.6c-.2-2.3-1.3-4.3-3.5-6s-5.3-2.5-9.4-2.5-6.5.7-8.5,2.1c-2,1.4-3,3.2-3,5.5s.8,3.8,2.4,5c1.6,1.2,4.3,2,7.9,2.4l6,.6c8,.8,14.3,3,18.8,6.6s6.8,8.4,6.8,14.5-1.2,8.4-3.7,11.7-5.9,5.9-10.3,7.7-9.6,2.7-15.6,2.7h0Z"/>
            </g>
            <g>
              <path class="cls-1" d="M235.8,208.2c-6.5,0-12.1-1.2-16.8-3.4-4.7-2.3-8.5-5.3-11.4-9-2.9-3.7-5.1-7.7-6.5-12-1.4-4.3-2.1-8.5-2.1-12.5v-2.2c0-4.5.7-8.9,2.1-13.2,1.4-4.3,3.6-8.3,6.6-11.8,3-3.6,6.7-6.4,11.3-8.5,4.6-2.1,10-3.2,16.2-3.2s12.2,1.2,17,3.5c4.8,2.3,8.7,5.6,11.6,9.9,2.9,4.2,4.6,9.2,5.2,14.8h-14.1c-.5-3.3-1.7-6.1-3.5-8.3-1.8-2.3-4.1-4-6.9-5.1-2.8-1.1-5.9-1.7-9.4-1.7s-6.7.6-9.5,1.8c-2.8,1.2-5.1,2.9-6.9,5.2-1.8,2.2-3.2,4.9-4.2,7.9-1,3-1.4,6.4-1.4,10.1s.5,6.8,1.4,9.9c1,3,2.4,5.7,4.3,7.9,1.9,2.3,4.3,4,7.1,5.3,2.8,1.3,6,1.9,9.7,1.9,5.4,0,9.9-1.3,13.7-4,3.7-2.7,6-6.4,6.8-11.2h14.1c-.7,5.1-2.4,9.8-5.2,14.1-2.8,4.3-6.7,7.7-11.6,10.3-4.9,2.6-10.8,3.8-17.7,3.8h0Z"/>
              <path class="cls-1" d="M306.8,208.2c-4.7,0-8.9-.8-12.5-2.3s-6.7-3.6-9.2-6.2c-2.5-2.6-4.4-5.5-5.7-8.8-1.3-3.3-1.9-6.7-1.9-10.3v-2.1c0-3.7.7-7.2,2-10.5s3.3-6.3,5.8-8.9c2.5-2.6,5.6-4.6,9.2-6.1s7.7-2.2,12.2-2.2,8.6.7,12.2,2.2c3.6,1.5,6.7,3.5,9.2,6.1,2.5,2.6,4.5,5.6,5.8,8.9s2,6.8,2,10.5v2.1c0,3.6-.6,7-1.9,10.3-1.3,3.3-3.2,6.2-5.7,8.8s-5.6,4.7-9.2,6.2-7.8,2.3-12.4,2.3h0ZM306.8,196.5c3.4,0,6.2-.7,8.5-2.2s4-3.5,5.2-6c1.2-2.5,1.8-5.4,1.8-8.6s-.6-6.2-1.8-8.7c-1.2-2.5-3-4.5-5.3-6-2.3-1.5-5.1-2.2-8.3-2.2s-6,.7-8.3,2.2-4.1,3.5-5.4,6c-1.3,2.5-1.9,5.4-1.9,8.7s.6,6.1,1.8,8.6,3,4.5,5.3,6c2.3,1.5,5.1,2.2,8.5,2.2h0Z"/>
              <path class="cls-1" d="M348.1,206.3v-53.6h10.8v23h-1c0-5.5.7-10,2.2-13.7,1.5-3.6,3.6-6.4,6.5-8.2,2.9-1.8,6.4-2.8,10.7-2.8h.6c6.4,0,11.2,2.1,14.5,6.2,3.3,4.1,4.9,10.3,4.9,18.4v30.7h-13.7v-31.9c0-3.3-.9-6-2.8-8s-4.5-3.1-7.7-3.1-6.1,1-8.1,3.1-3.1,4.8-3.1,8.3v31.5h-13.7,0Z"/>
              <path class="cls-1" d="M412,206.3v-53.6h10.8v23h-1c0-5.5.7-10,2.2-13.7,1.5-3.6,3.6-6.4,6.5-8.2,2.9-1.8,6.4-2.8,10.7-2.8h.6c6.4,0,11.2,2.1,14.5,6.2,3.3,4.1,4.9,10.3,4.9,18.4v30.7h-13.7v-31.9c0-3.3-.9-6-2.8-8-1.9-2-4.5-3.1-7.7-3.1s-6.1,1-8.1,3.1c-2.1,2.1-3.1,4.8-3.1,8.3v31.5h-13.7,0Z"/>
              <path class="cls-1" d="M499.9,208.2c-4.6,0-8.6-.8-12.1-2.4-3.4-1.6-6.3-3.7-8.6-6.4s-4-5.6-5.1-8.9c-1.2-3.3-1.7-6.6-1.7-10.1v-1.9c0-3.6.6-7,1.7-10.3,1.1-3.3,2.9-6.3,5.1-8.9,2.3-2.6,5.1-4.7,8.4-6.2,3.4-1.5,7.2-2.3,11.6-2.3s10.6,1.3,14.6,3.8c3.9,2.5,6.9,5.9,8.8,10,2,4.1,3,8.5,3,13.3v4.9h-47.5v-8.4h38.9l-4.2,4.1c0-3.4-.5-6.4-1.5-8.8-1-2.4-2.5-4.3-4.5-5.6-2-1.3-4.5-2-7.5-2s-5.6.7-7.7,2.1-3.7,3.4-4.8,6c-1.1,2.6-1.6,5.7-1.6,9.3s.5,6.3,1.6,8.9,2.7,4.6,4.8,6.1,4.9,2.2,8.3,2.2,6.1-.7,8.2-2,3.4-3,4-5h12.6c-.8,3.7-2.3,6.9-4.5,9.7-2.2,2.8-5.1,4.9-8.5,6.4s-7.4,2.3-11.8,2.3h0Z"/>
              <path class="cls-1" d="M560.9,208.2c-4.7,0-8.7-.8-12.1-2.4-3.4-1.6-6.2-3.7-8.5-6.3-2.3-2.6-4-5.6-5.1-8.9-1.1-3.3-1.7-6.6-1.7-10.1v-1.9c0-3.6.6-7.1,1.7-10.4,1.1-3.3,2.9-6.3,5.2-8.9,2.3-2.6,5.1-4.7,8.5-6.2,3.4-1.5,7.3-2.3,11.8-2.3s8.8.9,12.5,2.7c3.7,1.8,6.6,4.3,8.8,7.5,2.2,3.2,3.4,7,3.7,11.2h-13.3c-.3-2.8-1.5-5.1-3.5-6.9-2-1.8-4.8-2.8-8.2-2.8s-5.5.7-7.5,2.2c-2,1.5-3.5,3.4-4.5,6-1,2.5-1.5,5.4-1.5,8.7s.5,6,1.4,8.6,2.4,4.6,4.4,6c2,1.5,4.6,2.2,7.7,2.2s4.4-.4,6.1-1.3,3.1-2,4.1-3.6c1-1.5,1.7-3.2,1.9-5.1h13.3c-.3,4.3-1.5,8.1-3.8,11.4-2.3,3.3-5.3,5.8-9,7.6-3.7,1.8-7.9,2.8-12.7,2.8h0Z"/>
              <path class="cls-1" d="M590.4,162.8v-10.1h37.9v10.1h-37.9,0ZM620.6,207c-4.9,0-9-.6-12.2-1.9-3.2-1.3-5.6-3.4-7.1-6.5-1.6-3.1-2.4-7.2-2.4-12.4v-48.5h12.9v49.4c0,2.6.6,4.7,2,6.1,1.4,1.4,3.4,2.1,6.1,2.1h8.4v11.7h-7.7Z"/>
              <path class="cls-1" d="M663.5,208.2c-4.6,0-8.6-.8-12.1-2.4-3.4-1.6-6.3-3.7-8.6-6.4s-4-5.6-5.1-8.9c-1.2-3.3-1.7-6.6-1.7-10.1v-1.9c0-3.6.6-7,1.7-10.3s2.9-6.3,5.1-8.9c2.3-2.6,5.1-4.7,8.4-6.2,3.4-1.5,7.2-2.3,11.6-2.3s10.6,1.3,14.6,3.8c3.9,2.5,6.9,5.9,8.8,10,2,4.1,3,8.5,3,13.3v4.9h-47.5v-8.4h38.9l-4.2,4.1c0-3.4-.5-6.4-1.5-8.8-1-2.4-2.5-4.3-4.5-5.6-2-1.3-4.5-2-7.5-2s-5.6.7-7.7,2.1-3.7,3.4-4.8,6c-1.1,2.6-1.6,5.7-1.6,9.3s.5,6.3,1.6,8.9,2.7,4.6,4.8,6.1,4.9,2.2,8.3,2.2,6.1-.7,8.2-2,3.4-3,4-5h12.6c-.8,3.7-2.3,6.9-4.5,9.7-2.2,2.8-5.1,4.9-8.5,6.4s-7.4,2.3-11.8,2.3h0Z"/>
              <path class="cls-1" d="M722.9,208.1c-3.8,0-7.2-.7-10.4-2.1s-5.9-3.3-8.2-5.8c-2.3-2.5-4.1-5.4-5.3-8.7-1.3-3.3-1.9-6.9-1.9-10.8v-2.1c0-3.8.6-7.4,1.8-10.8,1.2-3.4,2.9-6.3,5.1-8.8,2.2-2.5,4.9-4.5,8-5.9,3.1-1.4,6.6-2.1,10.4-2.1s7.9.9,11.1,2.7c3.2,1.8,5.7,4.5,7.6,8.1,1.9,3.6,3,8.2,3.2,13.6l-4-4.7v-36.5h13.7v72h-10.8v-22.8h2.4c-.2,5.5-1.3,10-3.4,13.7-2,3.6-4.7,6.4-8,8.2-3.3,1.8-7.1,2.7-11.3,2.7h0ZM725.9,196.5c2.7,0,5.2-.6,7.4-1.8,2.2-1.2,4-3,5.4-5.3,1.3-2.3,2-5.1,2-8.2v-3.9c0-3.2-.7-5.8-2.1-7.9s-3.2-3.8-5.4-4.9c-2.2-1.1-4.7-1.7-7.3-1.7s-5.6.7-7.8,2.1c-2.3,1.4-4,3.4-5.3,6-1.3,2.6-1.9,5.6-1.9,9s.7,6.4,2,8.9c1.3,2.5,3.1,4.5,5.4,5.9s4.8,2.1,7.7,2.1h0Z"/>
            </g>
          </g>
          <g>
            <path class="cls-3" d="M177.6,39.2l-7.9,6.3-.9.8c0-.2,0-.4,0-.5-14.6-.3-28.6-2.5-42.2-7.4-13.6-4.9-25.9-11.9-36.2-21.5-6,4.2-11.6,8.7-17.6,12.3-18.4,11-38.6,16-59.9,16.5-1.5,0-2,.4-2.1,2,0,0,0,.2,0,.3l-1.6-1.3-7-6.4c0-.4,0-.8.1-1.2,0-.7.2-1.5.4-2.6,16.3.3,32.2-1.4,47.5-6.9,15.3-5.5,28.6-14.1,39.9-26.3,11.3,12.3,24.7,20.9,40.1,26.4,15.3,5.5,31.1,7.1,47.4,6.8,0,.9.2,1.9.3,2.8h0Z"/>
            <path class="cls-1" d="M172.2,111.2c-2.6,9.6-6.1,19-10.5,28.3-14.6,31.1-37.4,54.5-67,71.6-3.6,2.1-6.1,2.1-9.7,0-39.5-23-64.7-55.7-76.8-97.6l5,2.4,2.7,1.5h0l4,2.2c.5,1.4,1,2.7,1.5,4.1,12.9,34.1,35.4,60,66.8,78.3,1.1.6,1.9.8,3,0,23.8-13.9,43.2-32.4,56.7-56.6,4.9-8.8,8.9-17.7,12.1-26.9h0l.5-.3h0c0-.1,10.2-6.4,10.2-6.4l1.4-.8h0Z"/>
            <path class="cls-3" d="M129.4,125.8c-10.2-8.3-20.4-16.7-30.7-25-.3-.3-1-.3-1.5-.1-1.9.7-3.7,1.6-5.6,2.3-5.7,1.8-11.3,1.6-16.6-1.4-.7-.4-1.4-.9-1.9-1.6-1.2-1.8-.5-4,1.6-5.2,4-2.2,8.1-4.3,12.1-6.4,0-.1,0-.3,0-.4-1.4,0-2.9-.4-4.3-.2-8.8,1.3-17.6,2.1-26.4,2.2-1,0-1.5.3-2,1.2-5.7,9.4-11.5,18.8-17.3,28.1-.3.4-.5.8-.7,1.3,1.8,1.4,3.5,2.7,5.3,4,1.9-1.7,3.7-3.3,5.6-4.8,4.2-3.3,10.2-1.1,11.2,4.2,0,.5.2.9.3,1.4.3-.2.5-.3.7-.4,5.6-4.1,11.8.8,11.5,5.9,0,.4.1.8.2,1.3,2.2-.2,4.2.2,5.8,1.6,0,0,0,0,0,0l1.7,1.9c0,0,.1,0,.2-.1.3,1.7.6,3.4.9,5.2,3-.3,5.6.6,7.2,3.3,1.7,2.8,1.1,5.6-.7,8.2,3,1.7,5.9,3.4,8.8,5.1.3.2.5.3.8.4,3.2,1.5,6.8-.6,7-4,.1-1.9-.7-3.4-2.3-4.5-4.5-3.1-9.1-6.3-13.6-9.4-.6-.4-1.5-.9-.8-1.8.7-.9,1.4-.2,2,.2,1.2.8,2.3,1.6,3.5,2.4,4.9,3.4,9.8,6.9,14.8,10.2,3,2,6.8.6,7.6-2.9.5-2.2-.5-3.9-2.3-5.2-5.9-4.2-11.8-8.4-17.7-12.5-.4-.3-.8-.5-1-.8-.2-.3-.3-.9,0-1.2.2-.3.7-.4,1.1-.4.3,0,.7.4,1,.6,3.1,2.2,6.1,4.3,9.2,6.5,3.8,2.7,7.5,5.4,11.3,8,2.4,1.6,5.4,1.1,7-1.2,1.6-2.3,1.2-5.3-1.1-7.1-.4-.3-.9-.7-1.4-1-6.9-5-13.9-10-20.8-15-.6-.4-1.4-.9-.8-1.8.6-.9,1.3-.4,1.9,0,.3.2.5.4.7.5,7.4,5.4,14.9,10.7,22.3,16.1,2.4,1.7,5.4,1.4,7.1-.8,1.7-2.2,1.4-5.2-.9-7.1h0Z"/>
            <path class="cls-1" d="M121.4,89.4c-4.5,2-9.1,2.2-13.8.5-3-1.1-6-2-9-3-1.8-.6-3.6-.6-5.3.3-5.9,3.1-11.8,6.2-17.6,9.3-1.5.8-1.5,2.2,0,3,3.3,2,6.8,2.7,10.6,2.4,3.8-.3,7.3-1.6,10.6-3.5,1-.6,1.7-.5,2.6.3,1.2,1.1,2.6,2.1,3.9,3.2,9.8,8,19.6,15.9,29.3,23.9,2.8-2.8,5.9-5.9,9-9-5.8-9.4-11.6-18.9-17.6-28.6-1,.4-1.8.7-2.7,1.1h0Z"/>
            <path class="cls-1" d="M67.4,127.2c-2-2.2-4.9-2.4-7.2-.4-3.4,2.9-6.7,5.9-10,8.8-1.1,1-1.7,2.2-1.7,4,0,1.9,1.1,3.5,3.1,4.4,1.9.9,3.8.6,5.4-.8,3.4-2.9,6.7-5.8,10-8.8,2.2-2,2.4-5,.4-7.2h0Z"/>
            <path class="cls-1" d="M76.8,137.1c-.9-1.9-2.4-3-5.1-3-.5.2-1.6.4-2.4,1.1-3.2,2.6-6.3,5.4-9.3,8.2-1.9,1.8-1.9,4.7-.2,6.7,1.7,1.9,4.7,2.4,6.7.7,3.2-2.7,6.4-5.4,9.4-8.3,1.6-1.4,1.8-3.4,1-5.3h0Z"/>
            <path class="cls-1" d="M55.2,121.9c-1.7-2-4.6-2.4-6.7-.7-2.4,1.9-4.7,4-7,6.1-1.5,1.4-1.8,3.5-1,5.4.9,2,2.4,2.9,5.1,3.1.6-.2,1.7-.4,2.4-1.1,2.4-1.9,4.7-4,7-6.1,1.9-1.8,1.9-4.7.2-6.7h0Z"/>
            <path class="cls-1" d="M83,143.2c-1.9-.9-3.8-.7-5.4.6-1.8,1.5-3.6,3.1-5.4,4.7-2,1.9-2.2,4.9-.4,6.9,1.8,2,4.7,2.3,6.9.5,1.8-1.5,3.6-3.1,5.4-4.7,1.1-1,1.6-2.2,1.6-4,0-1.6-.9-3.1-2.7-4h0Z"/>
            <path class="cls-3" d="M55.1,85.8c-7.7,12.5-15.3,25-23,37.5-2.5-1.4-5-2.8-7.5-4.2l-5.9-3.3h0l-4.2-2.3-7.2-3.5c-1.4-5.3-2.6-10.8-3.6-16.4C.7,77,0,60.3,1.6,43.6l5.6,5.1,3.2,2.5,22.9,17.8v.3c0,0,0-.2,0-.3,7.3,5.6,14.5,11.2,21.8,16.8h0Z"/>
            <path class="cls-1" d="M173.2,107.6l-3.7,2.1-8,4.9-4,2.4s0,0,0,0c-.6.3-1.2.7-1.8,1-2.7,1.5-5.4,3-8.1,4.6-7.7-12.5-15.4-25-23-37.5,7.3-5.6,14.5-11.2,21.8-16.9h0l22.8-18.8,2.2-1.8,6.5-5.2c.3,2.6.5,5.1.6,7.6,1,19.7-.7,38.9-5.4,57.6h0Z"/>
          </g>
        </g>
      </g>
    </g>
  </g>
</svg>